<?xml version="1.0" encoding="UTF-8" standalone="no"?>
<svg width="512px" height="512px" viewBox="0 0 512 512" version="1.1" xmlns="http://www.w3.org/2000/svg" xmlns:xlink="http://www.w3.org/1999/xlink" xmlns:sketch="http://www.bohemiancoding.com/sketch/ns">
    <!-- Generator: Sketch 3.0.2 (7799) - http://www.bohemiancoding.com/sketch -->
    <title>superprints</title>
    <description>Created with Sketch.</description>
    <defs></defs>
    <g id="Page-1" stroke="none" stroke-width="1" fill="none" fill-rule="evenodd" sketch:type="MSPage">
        <g id="superprints" sketch:type="MSArtboardGroup" fill="#1A1918">
            <g id="Imported-Layers" sketch:type="MSLayerGroup" transform="translate(29.000000, 92.000000)">
                <path d="M385.245917,-0.236557576 L66.0048035,-0.236557576 L-0.9119869,68.1921939 L56.775655,133.623224 L162.206507,133.623224 C166.307467,102.250521 193.0869,77.9705697 225.632314,77.9705697 L225.73762,77.9705697 C258.177729,78.0381576 284.915437,102.284315 289.032293,133.623224 L394.632031,133.623224 L452.158734,68.1921939 L385.245917,-0.236557576 L385.245917,-0.236557576 Z M340.338013,44.1090424 L378.558013,44.1090424 L378.558013,82.3657697 L340.338013,82.3657697 L340.338013,44.1090424 Z" id="Fill-1" sketch:type="MSShapeGroup"></path>
                <path d="M225.632314,206.08737 C193.0869,206.08737 166.307467,181.851152 162.206507,150.422788 L71.5701092,150.422788 L225.978035,325.523103 L379.863406,150.422788 L289.032293,150.422788 C284.915437,181.851152 258.122096,206.08737 225.632314,206.08737" id="Fill-2" sketch:type="MSShapeGroup"></path>
            </g>
        </g>
    </g>
</svg>